<svg xmlns="http://www.w3.org/2000/svg" viewBox="0 0 512 512" role="img" aria-label="Огородный календарь">
  <defs>
    <linearGradient id="bg" x1="80" x2="432" y1="40" y2="472" gradientUnits="userSpaceOnUse">
      <stop stop-color="#eff8df"/>
      <stop offset="1" stop-color="#bde5d9"/>
    </linearGradient>
    <linearGradient id="leaf" x1="125" x2="344" y1="196" y2="338" gradientUnits="userSpaceOnUse">
      <stop stop-color="#80cf53"/>
      <stop offset="1" stop-color="#1f8c65"/>
    </linearGradient>
    <linearGradient id="pot" x1="160" x2="352" y1="318" y2="456" gradientUnits="userSpaceOnUse">
      <stop stop-color="#f3a66f"/>
      <stop offset="1" stop-color="#c95f55"/>
    </linearGradient>
  </defs>
  <rect width="512" height="512" rx="112" fill="url(#bg)"/>
  <rect x="110" y="100" width="292" height="238" rx="42" fill="#ffffff" stroke="#174c3f" stroke-width="20"/>
  <path fill="#174c3f" d="M148 76c12 0 22 10 22 22v54c0 12-10 22-22 22s-22-10-22-22V98c0-12 10-22 22-22Zm216 0c12 0 22 10 22 22v54c0 12-10 22-22 22s-22-10-22-22V98c0-12 10-22 22-22Z"/>
  <path fill="#d9eee7" d="M130 178h252v58H130z"/>
  <circle cx="180" cy="271" r="18" fill="#1f8c65"/>
  <circle cx="256" cy="271" r="18" fill="#1f8c65"/>
  <circle cx="332" cy="271" r="18" fill="#1f8c65"/>
  <path fill="url(#leaf)" d="M257 326c-18-48 20-111 96-122c9 78-43 130-96 122Zm-7 4c-55 1-103-51-94-126c72 11 111 73 94 126Z"/>
  <path fill="#174c3f" d="M242 280h28v78h-28z"/>
  <path fill="url(#pot)" d="M164 350h184l-24 84c-5 18-21 30-40 30h-56c-19 0-35-12-40-30l-24-84Z"/>
  <rect x="146" y="324" width="220" height="54" rx="18" fill="#f6bd7d"/>
</svg>
